# xmcd
# Track frame offsets:
# 150
# 12554
# 26570
# 38174
# 49283
# 61229
# 74144
# 87391
# 100577
# 113814
# 126722
# 141314
# 152193
# 164969
# 176832
#
# Disc length: 2488 seconds
# Revision: 0
# Processed by: cddbd v1.5.1PL2 Copyright (c) Steve Scherf et al.
# Submitted via: VisiTrax 2.10.0.248 - For more info visit www.synapsa.com
#
DISCID=e709b60f
DTITLE=Freddy Fender - Freddy Fender
DYEAR=2001
DGENRE=country
TTITLE0=Wasted Days And Wasted Nights
TTITLE1=Baby I want To Love You
TTITLE2=You'll Loose A Good Thing (Live)
TTITLE3=The Rains Came (Live)
TTITLE4=Sweet Summer Day
TTITLE5=Only One
TTITLE6=The Girls Who Waits On Tables
TTITLE7=Silver Wings
TTITLE8=Just Because
TTITLE9=Donna
TTITLE10=Since I Met You Baby
TTITLE11=Wild Side Of Life
TTITLE12=Almost Persuaded
TTITLE13=I'm Leaving It All Up To You
TTITLE14=Before The Next Teardrop Falls
EXTD=
EXTT0=
EXTT1=
EXTT2=
EXTT3=
EXTT4=
EXTT5=
EXTT6=
EXTT7=
EXTT8=
EXTT9=
EXTT10=
EXTT11=
EXTT12=
EXTT13=
EXTT14=
PLAYORDER=
